<svg width="72" height="72" viewBox="0 0 72 72" fill="none" xmlns="http://www.w3.org/2000/svg">
<path d="M26.7037 13.4998V26.7027H13.5008V16.1998C13.5008 14.7086 14.7096 13.4998 16.2008 13.4998H26.7037Z" fill="white"/>
<path d="M58.5008 45.2969V55.7998C58.5008 57.291 57.292 58.4998 55.8008 58.4998H45.2979V45.2969H58.5008Z" fill="#6AAA64"/>
<path d="M42.5979 45.2969V58.4998H29.4037V45.2969H42.5979Z" fill="#6AAA64"/>
<path d="M26.7037 45.2969V58.4998H16.2008C14.7096 58.4998 13.5008 57.291 13.5008 55.7998V45.2969H26.7037Z" fill="#6AAA64"/>
<path d="M58.5008 29.4027V42.5969H45.2979V29.4027H58.5008Z" fill="#6AAA64"/>
<path d="M42.5979 29.4027V42.5969H29.4037V29.4027H42.5979Z" fill="#D1B036"/>
<path d="M26.7037 29.4027V42.5969H13.5008V29.4027H26.7037Z" fill="white"/>
<path d="M55.8008 13.4998C57.292 13.4998 58.5008 14.7086 58.5008 16.1998V26.7027H45.2979V13.4998H55.8008Z" fill="white"/>
<path d="M42.5979 13.4998V26.7027H29.4037V13.4998H42.5979Z" fill="white"/>
<path fill-rule="evenodd" clip-rule="evenodd" d="M56.0785 10.8068C58.9318 10.9514 61.2008 13.3106 61.2008 16.1998V55.7998L61.1938 56.0775C61.0539 58.8388 58.8398 61.0529 56.0785 61.1928L55.8008 61.1998H16.2008C13.3116 61.1998 10.9524 58.9308 10.8078 56.0775L10.8008 55.7998V16.1998C10.8008 13.2175 13.2184 10.7998 16.2008 10.7998H55.8008L56.0785 10.8068ZM13.5008 55.7998C13.5008 57.291 14.7096 58.4998 16.2008 58.4998H26.7037V45.2969H13.5008V55.7998ZM45.2979 45.2969V58.4998H55.8008C57.292 58.4998 58.5008 57.291 58.5008 55.7998V45.2969H45.2979ZM29.4037 58.4998H42.5979V45.2969H29.4037V58.4998ZM45.2979 29.4027V42.5969H58.5008V29.4027H45.2979ZM13.5008 42.5969H26.7037V29.4027H13.5008V42.5969ZM29.4037 42.5969H42.5979V29.4027H29.4037V42.5969ZM45.2979 26.7027H58.5008V16.1998C58.5008 14.7086 57.292 13.4998 55.8008 13.4998H45.2979V26.7027ZM16.2008 13.4998C14.7096 13.4998 13.5008 14.7086 13.5008 16.1998V26.7027H26.7037V13.4998H16.2008ZM29.4037 26.7027H42.5979V13.4998H29.4037V26.7027Z" fill="black"/>
</svg>
